<svg width="259" height="152" viewBox="0 0 259 152" fill="none" xmlns="http://www.w3.org/2000/svg"><path d="M77.623 52.32l3.6 6.432c.192.336.336.672.336 1.008 0 .432-.192.864-.72 1.392-5.28 5.28-11.376 7.632-17.136 7.632-10.992 0-20.688-8.448-20.688-20.64 0-14.544 10.896-21.072 22.272-21.072 4.272 0 8.304 1.008 11.232 2.928.336.24.576.768.576 1.248 0 .144 0 .24-.048.384l-2.688 7.584c-.144.384-.624.816-1.152.816a.968.968 0 0 1-.528-.144c-1.488-.96-4.176-1.776-6.912-1.776-6.048 0-9.552 3.744-9.552 9.6 0 5.664 4.272 8.928 9.312 8.928 3.36 0 7.152-1.488 10.176-4.704.192-.192.48-.288.72-.288.48 0 1.008.288 1.2.672zm36.98 1.68c0 9.36-9.504 14.592-16.32 14.592-7.824 0-14.688-5.664-14.688-14.112 0-9.888 7.392-15.024 15.84-15.024 10.608 0 15.168 8.304 15.168 14.544zm-15.168 5.424c3.408 0 4.944-2.784 4.944-5.52 0-.912-.192-5.568-5.088-5.568-4.032 0-5.184 3.408-5.184 5.568 0 3.312 2.592 5.52 5.328 5.52zm22.95 9.168h-.528c-1.056 0-1.536-.192-1.824-1.008l-2.112-5.568c-.048-.144-.096-.288-.096-.384 0-.72.96-.816 1.536-.816 2.832-.048 4.176-1.392 4.176-2.544 0-.624-.624-1.392-1.296-2.256l-1.296-1.44c-2.112-2.4-2.976-4.464-2.976-6.288 0-5.424 7.824-8.304 14.112-8.304 1.872 0 2.352.192 2.688 1.056l2.16 5.568c.096.192.096.336.096.48 0 .528-.528.72-1.152.72h-.192c-2.88 0-3.984.96-3.984 1.92 0 .816.72 1.728 2.544 3.744 2.208 2.4 3.168 4.56 3.168 6.384 0 5.664-8.592 8.736-15.024 8.736zm32.365-1.056l-9.6.48h-.096c-.528 0-.912-.432-.96-.96l-1.2-23.376c0-.576.384-1.008.96-1.056l9.6-.48h.095c.481 0 .913.432.913.912l1.2 23.424v.096c0 .48-.432.912-.912.96zm.48-33.264c0 3.888-3.168 7.056-7.056 7.056-3.936 0-7.104-3.168-7.104-7.056a7.088 7.088 0 0 1 7.104-7.104c3.888 0 7.056 3.168 7.056 7.104zm36.463 20.496v1.584c0 2.688.624 4.848 2.592 6.672.288.24.768.72.768 1.248 0 .288-.144.576-.48.816 0 .096-4.752 3.504-4.752 3.504-.48.384-.96.528-1.392.528-.864 0-8.544-2.544-8.544-11.088V56.4c0-5.04-2.448-7.152-5.952-7.344l-.912 17.424c0 .48-.432.912-.912.912h-.096l-9.6-.48c-.576-.048-.96-.48-.96-1.056l1.296-24.96c.048-.528.48-.96.96-.96h.096l5.376.288c1.872-.384 3.648-.576 5.376-.576 9.744 0 17.136 5.952 17.136 15.12zm22.481 13.92h-.576c-10.896 0-16.368-7.44-16.368-14.736 0-6.864 4.848-14.064 15.792-14.064 11.904 0 12.432 10.608 12.432 12.192 0 2.208-.912 4.032-3.744 4.992-2.256.768-5.808 1.296-8.304 1.392-.768 0-1.008-.336-1.2-.912-.576-1.584-1.488-4.704-1.488-4.896 0-.528.384-.768 1.008-.912 2.496-.576 2.832-.672 2.832-1.344 0-.432-.912-1.968-2.928-1.968-2.304 0-4.224 2.016-4.224 4.992 0 3.408 2.496 7.248 8.496 7.248.336 0 .72 0 1.056-.048h.096c.672 0 1.488.432 1.488 1.248 0 .48-1.248 3.744-1.968 5.376-.384.768-1.008 1.44-2.4 1.44z" fill="url(#paint0_linear_276_6)"/><path d="M23.262 123.68l-10.176.528h-.096a1.117 1.117 0 0 1-1.104-1.104l-1.44-27.408-7.872.432c-.672 0-1.248-.48-1.248-1.104l-.432-8.88v-.096c0-.576.48-1.056 1.104-1.104l8.976-.48 19.008-1.008c.624 0 1.248.48 1.248 1.152l.432 8.784c0 .624-.48 1.2-1.152 1.248l-7.584.384 1.44 27.456v.048c0 .624-.528 1.104-1.104 1.152zm24.178 1.008h-.576c-10.896 0-16.368-7.44-16.368-14.736 0-6.864 4.848-14.064 15.792-14.064 11.904 0 12.432 10.608 12.432 12.192 0 2.208-.912 4.032-3.744 4.992-2.256.768-5.808 1.296-8.304 1.392-.768 0-1.008-.336-1.2-.912-.576-1.584-1.488-4.704-1.488-4.896 0-.528.384-.768 1.008-.912 2.496-.576 2.832-.672 2.832-1.344 0-.432-.912-1.968-2.928-1.968-2.304 0-4.224 2.016-4.224 4.992 0 3.408 2.496 7.248 8.496 7.248.336 0 .72 0 1.056-.048h.096c.672 0 1.488.432 1.488 1.248 0 .48-1.248 3.744-1.968 5.376-.384.768-1.008 1.44-2.4 1.44zm19.21-.096h-.527c-1.056 0-1.536-.192-1.824-1.008l-2.112-5.568c-.048-.144-.096-.288-.096-.384 0-.72.96-.816 1.536-.816 2.832-.048 4.176-1.392 4.176-2.544 0-.624-.624-1.392-1.296-2.256l-1.296-1.44c-2.112-2.4-2.976-4.464-2.976-6.288 0-5.424 7.824-8.304 14.112-8.304 1.872 0 2.352.192 2.688 1.056l2.16 5.568c.096.192.096.336.096.48 0 .528-.528.72-1.152.72h-.192c-2.88 0-3.984.96-3.984 1.92 0 .816.72 1.728 2.544 3.744 2.208 2.4 3.168 4.56 3.168 6.384 0 5.664-8.592 8.736-15.024 8.736zm37.789-7.728l-2.496 6.048c-.384.912-.816 1.392-1.536 1.392-.144 0-.288 0-.432-.048-7.728-1.536-10.416-5.76-10.656-17.904l-3.6-.192a1.085 1.085 0 0 1-.96-1.056l.576-7.968a1.05 1.05 0 0 1 1.056-.96l3.072.192c.096-1.824.192-3.792.336-5.856.048-.576.144-1.488 1.392-1.488h.192l9.072.432c.816.048 1.2.528 1.2 1.344a263.69 263.69 0 0 1-.384 6.144l3.312.192c.528 0 .96.48.96 1.056l-.576 7.968c-.048.48-.432.912-.96.912h-.096l-3.168-.144c0 4.368.576 7.68 2.688 8.592.528.24 1.104.432 1.104.96 0 .096-.048.24-.096.384zm48.135 7.44h-.096l-12.096-.624h-.192l-9.984-.48c-.624-.048-1.104-.576-1.104-1.248l1.968-37.44a1.153 1.153 0 0 1 1.152-1.056h.096l9.936.48c.624.048 1.104.576 1.104 1.248l-1.392 26.496 11.184.576a1.253 1.253 0 0 1 1.152 1.248l-.576 9.696c-.048.576-.528 1.104-1.152 1.104zM188.759 110c0 9.36-9.504 14.592-16.32 14.592-7.824 0-14.688-5.664-14.688-14.112 0-9.888 7.392-15.024 15.84-15.024 10.608 0 15.168 8.304 15.168 14.544zm-15.168 5.424c3.408 0 4.944-2.784 4.944-5.52 0-.912-.192-5.568-5.088-5.568-4.032 0-5.184 3.408-5.184 5.568 0 3.312 2.592 5.52 5.328 5.52zm22.614 18.432l1.536-4.416c.192-.624.72-.96 1.248-.96.096 0 .192.048.288.048 1.296.336 2.448.48 3.504.48 4.032 0 6.384-2.304 7.536-6.144-1.488.48-3.12.768-4.656.768-7.344 0-14.016-5.904-14.016-14.832 0-5.808 3.456-12.864 13.584-12.864 2.304 0 4.512.432 6.384 1.248.144-.528.576-.624 1.008-.624h.24s7.872.528 8.976.576c.768.048 1.248.672 1.248 1.392-.096 8.448-.144 17.184-1.536 24.384-1.968 10.176-9.312 14.16-16.8 14.16-2.784 0-5.568-.528-8.112-1.536-.432-.144-.528-.528-.528-.912 0-.288.048-.576.096-.768zm15.024-19.776l.24-.144c.096-1.92.144-4.032.144-6.192-.192-2.256-2.064-3.456-4.128-3.456-3.024 0-4.704 2.448-4.704 5.136 0 1.872.768 5.808 4.992 5.808 1.152 0 2.688-.528 3.456-1.152zm46.343-4.08c0 9.36-9.504 14.592-16.32 14.592-7.824 0-14.688-5.664-14.688-14.112 0-9.888 7.392-15.024 15.84-15.024 10.608 0 15.168 8.304 15.168 14.544zm-15.168 5.424c3.408 0 4.944-2.784 4.944-5.52 0-.912-.192-5.568-5.088-5.568-4.032 0-5.184 3.408-5.184 5.568 0 3.312 2.592 5.52 5.328 5.52z" fill="url(#paint1_linear_276_6)"/><defs><linearGradient id="paint0_linear_276_6" x1="178.014" y1="2.911" x2="178.014" y2="58.911" gradientUnits="userSpaceOnUse"><stop stop-color="#D63965"/><stop offset="1" stop-color="#E76E78"/></linearGradient><linearGradient id="paint1_linear_276_6" x1="179.064" y1="60.99" x2="179.064" y2="156.99" gradientUnits="userSpaceOnUse"><stop stop-color="#D63965"/><stop offset="1" stop-color="#E76E78"/></linearGradient></defs></svg>